# xmcd CD database file
#
# Track frame offsets:
#	150
#	15749
#	37256
#	54863
#	75708
#	95697
#	111901
#	128309
#	145383
#	159581
#	186265
#	204736
#	226134
#	242894
#
# Disc length: 3523 seconds
#
# Revision: 0
# Processed by: cddbd v1.5.2PL0 Copyright (c) Steve Scherf et al.
# Submitted via: CDex 1.51
#
DISCID=bc0dc10e
DTITLE=Art Of Tea - Chic Music
DYEAR=2010
DGENRE=Jazz
TTITLE0=Should I Stay Or Should I Go (The Clash)
TTITLE1=Smoke On The Water (Deep Purple)
TTITLE2=Let It Be (Beatles)
TTITLE3=Every Breath You Take (The Police)
TTITLE4=Light My Fire (The Doors)
TTITLE5=Long Train Running (Doobie Brothers)
TTITLE6=Lost And Found Love (Art Of Tea)
TTITLE7=YMCA (Village People)
TTITLE8=Sweet Dreams (Eurythmics)
TTITLE9=I'm Not Excited (I'm exited- Pointer Sisters)
TTITLE10=Gloria (Them)
TTITLE11=Calling You (uit Bagdad Café)
TTITLE12=Honky Tonk Woman (Rolling Stones)
TTITLE13=The Days Of Pearluy Spencer (David Mc Williams)
EXTD=YEAR: 2010
EXTT0=
EXTT1=
EXTT2=
EXTT3=
EXTT4=
EXTT5=
EXTT6=
EXTT7=
EXTT8=
EXTT9=
EXTT10=
EXTT11=
EXTT12=
EXTT13=
PLAYORDER=
